<mxfile host="app.diagrams.net" modified="2023-10-02T22:55:05.485Z" agent="Mozilla/5.0 (Windows NT 10.0; Win64; x64) AppleWebKit/537.36 (KHTML, like Gecko) Chrome/117.0.0.0 Safari/537.36" etag="V4uMIQnqEN7BGTtHCEt1" version="22.0.0" type="device">
  <diagram name="Page-1" id="rkl1h2_efeyfBWb5VfgS">
    <mxGraphModel dx="880" dy="478" grid="1" gridSize="10" guides="1" tooltips="1" connect="1" arrows="1" fold="1" page="1" pageScale="1" pageWidth="850" pageHeight="1100" math="0" shadow="0">
      <root>
        <mxCell id="0" />
        <mxCell id="1" parent="0" />
        <mxCell id="2CrjQhqCJyic_scXlsPh-6" style="edgeStyle=orthogonalEdgeStyle;rounded=0;orthogonalLoop=1;jettySize=auto;html=1;entryX=0.5;entryY=0;entryDx=0;entryDy=0;" edge="1" parent="1" source="2CrjQhqCJyic_scXlsPh-1" target="2CrjQhqCJyic_scXlsPh-3">
          <mxGeometry relative="1" as="geometry" />
        </mxCell>
        <mxCell id="2CrjQhqCJyic_scXlsPh-1" value="&lt;font style=&quot;font-size: 25px;&quot;&gt;START&lt;/font&gt;" style="rounded=1;whiteSpace=wrap;html=1;" vertex="1" parent="1">
          <mxGeometry x="270" y="110" width="220" height="100" as="geometry" />
        </mxCell>
        <mxCell id="2CrjQhqCJyic_scXlsPh-2" value="&lt;font style=&quot;font-size: 25px;&quot;&gt;END&lt;/font&gt;" style="rounded=1;whiteSpace=wrap;html=1;" vertex="1" parent="1">
          <mxGeometry x="270" y="670" width="220" height="100" as="geometry" />
        </mxCell>
        <mxCell id="2CrjQhqCJyic_scXlsPh-7" style="edgeStyle=orthogonalEdgeStyle;rounded=0;orthogonalLoop=1;jettySize=auto;html=1;entryX=0.5;entryY=0;entryDx=0;entryDy=0;" edge="1" parent="1" source="2CrjQhqCJyic_scXlsPh-3" target="2CrjQhqCJyic_scXlsPh-4">
          <mxGeometry relative="1" as="geometry" />
        </mxCell>
        <mxCell id="2CrjQhqCJyic_scXlsPh-3" value="&lt;font style=&quot;font-size: 20px;&quot;&gt;Num1&amp;nbsp; Num2&lt;/font&gt;" style="rounded=1;whiteSpace=wrap;html=1;" vertex="1" parent="1">
          <mxGeometry x="270" y="250" width="220" height="100" as="geometry" />
        </mxCell>
        <mxCell id="2CrjQhqCJyic_scXlsPh-9" style="edgeStyle=orthogonalEdgeStyle;rounded=0;orthogonalLoop=1;jettySize=auto;html=1;entryX=0.5;entryY=0;entryDx=0;entryDy=0;" edge="1" parent="1" source="2CrjQhqCJyic_scXlsPh-4" target="2CrjQhqCJyic_scXlsPh-5">
          <mxGeometry relative="1" as="geometry" />
        </mxCell>
        <mxCell id="2CrjQhqCJyic_scXlsPh-4" value="&lt;font style=&quot;font-size: 15px;&quot;&gt;Ans = Num1 + Num 2&lt;/font&gt;" style="rounded=1;whiteSpace=wrap;html=1;" vertex="1" parent="1">
          <mxGeometry x="270" y="380" width="220" height="100" as="geometry" />
        </mxCell>
        <mxCell id="2CrjQhqCJyic_scXlsPh-5" value="&lt;font style=&quot;font-size: 20px;&quot;&gt;Ans&lt;/font&gt;" style="rounded=1;whiteSpace=wrap;html=1;" vertex="1" parent="1">
          <mxGeometry x="270" y="520" width="220" height="100" as="geometry" />
        </mxCell>
        <mxCell id="2CrjQhqCJyic_scXlsPh-10" value="FLOW CHART OF ADDITION OF 2 NUMBERS" style="text;html=1;align=center;verticalAlign=middle;resizable=0;points=[];autosize=1;strokeColor=none;fillColor=none;" vertex="1" parent="1">
          <mxGeometry x="240" y="48" width="280" height="30" as="geometry" />
        </mxCell>
      </root>
    </mxGraphModel>
  </diagram>
</mxfile>
